<svg xmlns="http://www.w3.org/2000/svg" width="1200" height="630" viewBox="0 0 1200 630" fill="none">
  <rect width="1200" height="630" fill="#fafafa"/>
  <rect x="100" y="280" width="1000" height="24" rx="12" fill="#e5e7eb"/>
  <rect x="140" y="200" width="70" height="70" rx="8" fill="#fecaca" stroke="#f87171"/>
  <rect x="240" y="205" width="60" height="60" rx="6" fill="#fed7aa"/>
  <circle cx="420" cy="235" r="48" fill="#fff" stroke="#64748b" stroke-width="3"/>
  <circle cx="420" cy="235" r="12" fill="#475569"/>
  <path d="M390 235h60M420 205v60" stroke="#64748b" stroke-width="4"/>
  <rect x="520" y="200" width="70" height="70" rx="8" fill="#bbf7d0" stroke="#22c55e"/>
  <rect x="640" y="190" width="90" height="90" rx="12" fill="#dbeafe" stroke="#3b82f6"/>
  <rect x="670" y="220" width="30" height="30" rx="4" fill="#2563eb"/>
  <rect x="780" y="200" width="100" height="70" rx="8" fill="#e0e7ff" stroke="#6366f1"/>
  <rect x="800" y="218" width="60" height="10" rx="2" fill="#818cf8"/>
  <rect x="800" y="238" width="40" height="10" rx="2" fill="#a5b4fc"/>
  <path d="M920 235h180" stroke="#94a3b8" stroke-width="6" stroke-linecap="round" stroke-dasharray="16 12"/>
  <rect x="980" y="120" width="100" height="36" rx="8" fill="#0d9488" opacity=".9"/>
  <path d="M1000 138h40M1020 128v20" stroke="#fff" stroke-width="3" stroke-linecap="round"/>
</svg>
