<svg xmlns="http://www.w3.org/2000/svg" width="1200" height="630" viewBox="0 0 1200 630" fill="none">
  <rect width="1200" height="630" fill="#f8fafc"/>
  <rect x="80" y="100" width="420" height="430" rx="16" fill="#ecfdf5" stroke="#10b981" stroke-width="2"/>
  <path d="M120 160h340v240H120z" fill="#fff" stroke="#6ee7b7"/>
  <path stroke="#34d399" stroke-width="2" d="M140 180h300M140 210h300M140 240h300M180 270h40M240 270h40M300 270h40"/>
  <rect x="200" y="300" width="60" height="80" rx="4" fill="#059669"/>
  <rect x="700" y="100" width="420" height="430" rx="16" fill="#eff6ff" stroke="#2563eb" stroke-width="2"/>
  <rect x="740" y="160" width="140" height="90" rx="8" fill="#3b82f6" opacity=".85"/>
  <rect x="900" y="160" width="180" height="40" rx="6" fill="#93c5fd"/>
  <rect x="900" y="220" width="120" height="30" rx="6" fill="#bfdbfe"/>
  <path d="M740 320h340v120H740z" fill="#fff" stroke="#60a5fa"/>
  <path d="M760 400 L800 360 L840 390 L900 330 L960 370 L1020 310" stroke="#1d4ed8" stroke-width="3" fill="none" stroke-linecap="round"/>
  <path d="M540 240l60 75-60 75-60-75z" fill="#0d9488" stroke="#0f766e" stroke-width="2"/>
  <path d="M555 285h30" stroke="#fff" stroke-width="6" stroke-linecap="round"/>
</svg>
