<svg xmlns="http://www.w3.org/2000/svg" width="1200" height="630" viewBox="0 0 1200 630" fill="none">
  <rect width="1200" height="630" fill="#f1f5f9"/>
  <path d="M200 520 L400 200 L600 480 L800 180 L1000 520" stroke="#cbd5e1" stroke-width="14" fill="none" stroke-linecap="round" stroke-linejoin="round"/>
  <circle cx="400" cy="200" r="18" fill="#94a3b8"/>
  <circle cx="600" cy="480" r="18" fill="#94a3b8"/>
  <circle cx="800" cy="180" r="18" fill="#94a3b8"/>
  <rect x="320" y="240" width="120" height="90" rx="10" fill="#fff" stroke="#6366f1" stroke-width="2"/>
  <rect x="350" y="270" width="60" height="8" rx="2" fill="#a5b4fc"/>
  <rect x="680" y="260" width="130" height="100" rx="10" fill="#fff" stroke="#0d9488" stroke-width="2"/>
  <circle cx="745" cy="305" r="22" fill="#5eead4"/>
  <rect x="520" y="320" width="160" height="200" rx="80" fill="#1e3a8a"/>
  <circle cx="600" cy="380" r="28" fill="#fde68a"/>
  <path d="M600 350v20M585 365h30" stroke="#1e3a8a" stroke-width="3" stroke-linecap="round"/>
  <rect x="555" y="410" width="90" height="70" rx="8" fill="#3b82f6"/>
</svg>
