<svg xmlns="http://www.w3.org/2000/svg" width="1200" height="630" viewBox="0 0 1200 630" fill="none">
  <rect width="1200" height="630" fill="#f1f5f9"/>
  <rect x="72" y="72" width="1056" height="486" rx="20" fill="#fff" stroke="#e2e8f0" stroke-width="2"/>
  <rect x="110" y="110" width="320" height="22" rx="6" fill="#cbd5e1"/>
  <rect x="110" y="150" width="420" height="180" rx="12" fill="#e0f2fe" stroke="#38bdf8" stroke-width="2"/>
  <rect x="140" y="190" width="36" height="100" rx="4" fill="#2563eb"/>
  <rect x="190" y="220" width="36" height="70" rx="4" fill="#3b82f6"/>
  <rect x="240" y="170" width="36" height="120" rx="4" fill="#60a5fa"/>
  <path d="M560 150h380v200H560z" fill="#f8fafc" stroke="#94a3b8" stroke-width="2" rx="12"/>
  <path d="M590 290 L650 220 L710 250 L770 180 L830 200 L890 160" stroke="#0d9488" stroke-width="4" fill="none" stroke-linecap="round" stroke-linejoin="round"/>
  <circle cx="980" cy="200" r="56" fill="#fff" stroke="#f97316" stroke-width="3"/>
  <path d="M980 170v60M950 200h60" stroke="#f97316" stroke-width="8" stroke-linecap="round"/>
  <rect x="560" y="380" width="170" height="120" rx="10" fill="#eef2ff" stroke="#6366f1" stroke-width="2"/>
  <rect x="590" y="410" width="110" height="12" rx="3" fill="#a5b4fc"/>
  <rect x="590" y="435" width="80" height="12" rx="3" fill="#c7d2fe"/>
  <rect x="760" y="380" width="180" height="120" rx="10" fill="#ecfdf5" stroke="#10b981" stroke-width="2"/>
  <circle cx="850" cy="430" r="28" fill="#34d399"/>
  <path d="M820 455h60" stroke="#059669" stroke-width="4" stroke-linecap="round"/>
</svg>
