<svg xmlns="http://www.w3.org/2000/svg" width="1200" height="630" viewBox="0 0 1200 630" fill="none">
  <rect width="1200" height="630" fill="#f0fdf4"/>
  <rect x="120" y="120" width="960" height="390" rx="20" fill="#fff" stroke="#bbf7d0" stroke-width="2"/>
  <path d="M180 420 L280 320 L380 360 L500 240 L620 300 L760 180 L880 240 L1020 160" stroke="#22c55e" stroke-width="5" fill="none" stroke-linecap="round" stroke-linejoin="round"/>
  <rect x="200" y="440" width="50" height="70" rx="4" fill="#15803d"/>
  <rect x="280" y="400" width="50" height="110" rx="4" fill="#16a34a"/>
  <rect x="360" y="360" width="50" height="150" rx="4" fill="#22c55e"/>
  <rect x="440" y="390" width="50" height="120" rx="4" fill="#4ade80"/>
  <circle cx="900" cy="260" r="70" fill="#fff" stroke="#eab308" stroke-width="3"/>
  <circle cx="900" cy="260" r="36" fill="#fef08a" stroke="#ca8a04" stroke-width="2"/>
  <circle cx="900" cy="260" r="14" fill="#ca8a04"/>
  <rect x="720" y="380" width="360" height="100" rx="12" fill="#ecfdf5" stroke="#86efac"/>
  <rect x="750" y="410" width="120" height="12" rx="3" fill="#86efac"/>
  <rect x="750" y="435" width="200" height="12" rx="3" fill="#bbf7d0"/>
</svg>
