<svg xmlns="http://www.w3.org/2000/svg" width="1200" height="630" viewBox="0 0 1200 630" fill="none">
  <rect width="1200" height="630" fill="#f8fafc"/>
  <path d="M520 140 L600 100 L680 140V280c0 80-80 140-80 140s-80-60-80-140V140z" fill="#e0e7ff" stroke="#4338ca" stroke-width="3"/>
  <path d="M560 200h80v60h-80z" fill="#fff" stroke="#6366f1" stroke-width="2"/>
  <circle cx="600" cy="230" r="8" fill="#4f46e5"/>
  <rect x="200" y="360" width="280" height="200" rx="12" fill="#fff" stroke="#94a3b8" stroke-width="2"/>
  <rect x="230" y="400" width="220" height="14" rx="4" fill="#e2e8f0"/>
  <rect x="230" y="430" width="180" height="14" rx="4" fill="#e2e8f0"/>
  <rect x="230" y="460" width="200" height="14" rx="4" fill="#e2e8f0"/>
  <rect x="230" y="500" width="100" height="36" rx="6" fill="#22c55e"/>
  <rect x="720" y="360" width="280" height="200" rx="12" fill="#fff" stroke="#94a3b8" stroke-width="2"/>
  <rect x="750" y="400" width="100" height="100" rx="8" fill="#fef3c7" stroke="#f59e0b"/>
  <path d="M770 460h60M800 430v60" stroke="#d97706" stroke-width="3" stroke-linecap="round"/>
</svg>
